<?xml version="1.0" standalone="no"?>
<!DOCTYPE svg PUBLIC "-//W3C//DTD SVG 20010904//EN"
 "http://www.w3.org/TR/2001/REC-SVG-20010904/DTD/svg10.dtd">
<svg version="1.0" xmlns="http://www.w3.org/2000/svg"
 width="640.000000pt" height="640.000000pt" viewBox="0 0 640.000000 640.000000"
 preserveAspectRatio="xMidYMid meet">
<metadata>
Created by potrace 1.14, written by Peter Selinger 2001-2017
</metadata>
<g transform="translate(0.000000,640.000000) scale(0.100000,-0.100000)"
fill="#000000" stroke="none">
<path d="M0 3200 l0 -3200 149 0 c167 0 151 -8 171 85 33 151 107 152 178 2
12 -26 22 -50 22 -52 0 -3 -15 -11 -33 -19 -28 -13 189 -14 1666 -15 1395 -1
1697 1 1697 12 0 20 51 65 82 72 36 9 90 -10 144 -51 l44 -34 1140 0 1140 0 0
145 c0 93 -4 145 -10 145 -11 0 -60 -29 -70 -40 -13 -16 -40 -19 -40 -5 0 20
-66 20 -86 1 -12 -13 -11 -15 8 -19 l23 -4 -22 -2 c-12 0 -28 5 -35 12 -10 12
-17 7 -39 -23 -42 -57 -89 -82 -158 -82 -32 0 -70 6 -85 14 -15 8 -88 78 -162
157 l-134 143 0 62 c0 33 4 56 8 50 12 -18 42 -24 63 -14 27 15 8 54 -22 45
-13 -4 -19 -2 -19 9 0 8 -3 21 -6 30 -5 12 0 16 20 16 26 0 27 2 41 73 2 9 -1
17 -6 17 -5 0 7 15 26 34 35 34 96 62 126 58 18 -3 45 25 35 35 -4 4 -11 1
-16 -7 -5 -8 -11 -12 -14 -9 -9 8 34 50 44 44 5 -3 7 -20 4 -38 l-5 -32 15 27
c9 14 37 36 62 49 63 30 128 35 184 14 25 -10 55 -18 67 -19 11 0 19 -4 17 -8
-2 -4 5 -9 15 -13 28 -8 101 -94 101 -116 0 -11 4 -19 8 -19 5 0 16 -17 25
-37 8 -21 19 -47 24 -58 4 -11 9 198 11 474 l2 493 -35 49 c-19 27 -35 52 -35
55 0 3 16 -3 35 -15 l35 -20 0 724 c0 702 -1 724 -19 730 -32 10 -144 85 -183
123 l-37 35 0 241 c1 211 -3 264 -26 426 -42 285 -83 403 -238 681 l-53 97 29
-10 c16 -6 31 -17 34 -24 8 -20 57 -17 99 7 30 17 55 21 131 21 85 0 94 2 105
21 7 12 11 25 10 28 -1 7 85 51 126 63 l22 7 0 780 0 779 -270 0 -270 0 -1
-97 c-1 -87 -2 -93 -10 -49 -4 28 -6 53 -3 58 3 4 0 8 -5 8 -6 0 -11 11 -11
24 0 57 2 57 -184 56 l-172 -2 -13 -29 c-7 -17 -24 -35 -38 -40 -37 -14 -62
-49 -63 -87 0 -22 -9 -42 -26 -59 -14 -14 -23 -32 -20 -39 7 -17 -24 -85 -35
-78 -15 9 -39 -54 -39 -101 0 -38 -3 -45 -20 -45 -18 0 -19 -7 -19 -72 1 -40
6 -79 11 -86 6 -7 8 -15 4 -19 -3 -3 -6 -1 -6 5 0 7 -7 12 -15 12 -12 0 -15
-14 -15 -70 0 -67 14 -95 23 -47 4 19 4 18 6 -5 0 -16 6 -28 12 -28 7 0 10
-13 7 -33 -2 -18 0 -38 5 -44 24 -30 45 -50 67 -65 l25 -17 -22 -7 c-21 -6
-33 -34 -15 -34 15 0 92 -78 92 -94 0 -9 4 -16 8 -16 13 0 1 -123 -14 -147
-18 -28 -18 -33 1 -33 20 0 9 -49 -17 -71 -10 -9 -18 -25 -18 -35 0 -11 -11
-32 -25 -48 -16 -18 -23 -36 -19 -48 3 -10 1 -18 -5 -18 -6 0 -11 5 -11 10 0
6 -7 10 -16 10 -18 0 -44 -23 -44 -40 0 -6 -8 -14 -17 -17 -25 -10 -43 -29
-43 -47 0 -18 -33 -30 -60 -21 -10 3 -28 1 -40 -5 -13 -7 -20 -7 -20 0 0 5
-18 10 -40 10 -23 0 -40 5 -40 11 0 6 -7 9 -15 5 -12 -4 -13 -2 -5 13 8 16 7
18 -8 14 -11 -2 -32 9 -55 30 -29 26 -38 42 -39 70 -1 21 -5 37 -10 37 -5 0
-6 -4 -3 -10 3 -5 -1 -10 -9 -10 -12 0 -16 10 -16 40 0 22 -4 40 -10 40 -5 0
-10 18 -10 40 0 43 -16 55 -23 18 -2 -13 -2 7 1 43 6 84 -4 139 -24 139 -14 0
-15 12 -10 83 4 57 3 76 -4 62 -8 -15 -8 -12 -3 15 10 54 5 239 -8 279 -7 20
-14 43 -17 51 -14 44 -7 93 10 69 7 -10 8 -8 4 7 -5 15 14 47 77 126 98 125
107 135 264 297 l121 126 -2171 3 c-1730 2 -2172 0 -2179 -10 -6 -10 -10 -10
-17 1 -14 22 -19 -45 -10 -159 4 -58 9 -116 9 -130 1 -22 2 -23 9 -6 6 17 8
17 14 4 3 -9 0 -18 -6 -21 -14 -5 -21 -97 -8 -97 5 0 14 -13 21 -30 7 -16 17
-30 22 -30 6 0 9 -38 6 -95 -1 -52 0 -95 5 -95 4 0 7 -7 7 -16 0 -11 -10 -6
-34 18 -19 18 -44 40 -55 48 -32 23 -46 124 -57 402 -4 102 -3 167 4 187 l11
31 -370 0 -369 0 0 -3200z m5500 3156 c0 -3 -4 -8 -10 -11 -5 -3 -10 -1 -10 4
0 6 5 11 10 11 6 0 10 -2 10 -4z m-1620 -27 c12 -8 12 -10 -5 -8 -11 1 -27 0
-35 -4 -8 -3 -37 -7 -65 -10 -27 -3 -42 -3 -32 0 28 7 19 23 -10 17 -102 -18
-125 -21 -148 -17 -13 3 -33 2 -42 -2 -18 -8 -32 -10 -93 -13 -27 -2 -31 -5
-20 -12 8 -5 11 -10 5 -10 -5 0 -16 4 -24 9 -10 6 -22 5 -35 -5 -11 -8 -25
-14 -31 -14 -5 0 -3 5 5 11 11 8 8 9 -15 5 -16 -3 -48 -8 -70 -12 -22 -4 -44
-9 -50 -13 -12 -7 -30 -11 -72 -18 -18 -3 -33 -8 -33 -12 0 -4 -13 -8 -30 -8
-144 0 289 94 535 115 134 12 248 13 265 1z m149 -5 c2 -2 -23 -4 -57 -4 -34
0 -62 4 -62 9 0 9 109 3 119 -5z m159 -15 c45 -7 82 -15 82 -19 0 -3 -41 -1
-91 6 -50 7 -97 10 -103 8 -7 -3 -19 3 -27 12 -13 16 -11 17 21 11 19 -3 72
-11 118 -18z m155 -30 c22 -6 37 -13 34 -15 -3 -3 -27 1 -53 10 -56 17 -39 21
19 5z m-2988 -64 c37 -30 63 -55 58 -55 -5 0 -15 6 -22 13 -10 10 -11 9 -6 -5
4 -9 19 -20 33 -23 53 -12 110 -85 67 -85 -21 0 -19 -12 5 -33 12 -10 18 -23
14 -30 -5 -8 -2 -7 9 2 17 13 18 35 3 59 -17 29 2 19 49 -25 147 -135 235
-224 218 -219 -13 4 -23 1 -26 -7 -3 -9 1 -14 11 -13 9 0 17 -4 17 -11 0 -6 4
-15 9 -20 5 -4 7 -3 3 2 -7 13 9 42 18 33 4 -4 -7 -36 -24 -71 -17 -36 -31
-67 -31 -71 0 -21 -75 -114 -157 -195 -54 -53 -111 -112 -127 -131 -21 -26
-27 -29 -22 -13 4 12 2 24 -3 28 -6 3 -9 0 -6 -7 3 -7 1 -18 -3 -23 -13 -18
-60 -37 -72 -30 -7 4 -16 2 -20 -5 -12 -19 -30 -2 -30 28 0 15 -4 34 -10 42
-5 9 -5 19 1 26 8 9 5 11 -10 7 -12 -3 -21 -9 -21 -14 0 -5 -9 -9 -20 -9 -23
0 -24 4 -10 30 8 15 5 18 -20 22 -18 3 -27 1 -23 -6 3 -6 -8 4 -25 22 -38 40
-43 61 -18 76 10 6 30 21 43 33 23 20 23 22 6 32 -15 9 -12 10 13 5 21 -4 36
-1 47 10 8 9 22 16 29 16 7 0 23 7 34 15 12 8 24 12 27 8 3 -3 9 6 13 21 3 15
13 26 23 26 10 0 12 3 5 8 -6 4 -13 32 -16 62 l-6 55 15 -48 c17 -56 21 -56
24 -2 2 22 7 43 11 46 7 5 -67 165 -83 179 -3 3 -22 38 -42 78 -44 87 -49 138
-14 151 12 5 30 5 40 -1 27 -14 20 1 -19 38 -55 51 -34 41 41 -21z m-45 15 c0
-5 -4 -10 -10 -10 -5 0 -10 5 -10 10 0 6 5 10 10 10 6 0 10 -4 10 -10z m1733
-23 c4 -10 -2 -13 -20 -9 -18 3 -21 7 -11 13 18 12 25 11 31 -4z m-46 -29 c-6
-4 -14 -2 -18 4 -4 6 -13 7 -20 4 -8 -4 -6 -1 5 8 14 11 21 12 31 3 9 -9 10
-14 2 -19z m1598 22 c-3 -5 -11 -10 -16 -10 -6 0 -7 5 -4 10 3 6 11 10 16 10
6 0 7 -4 4 -10z m-1760 -59 c-6 -5 -26 -12 -45 -15 l-35 -6 35 14 c42 17 58
20 45 7z m-130 -51 c3 -6 -1 -7 -9 -4 -18 7 -21 14 -7 14 6 0 13 -4 16 -10z
m-110 -40 c-3 -5 -14 -10 -23 -9 -14 0 -13 2 3 9 27 11 27 11 20 0z m2692 -32
c-3 -8 -6 -5 -6 6 -1 11 2 17 5 13 3 -3 4 -12 1 -19z m-2707 8 c0 -2 -7 -7
-16 -10 -8 -3 -12 -2 -9 4 6 10 25 14 25 6z m-1167 -206 c3 -11 1 -20 -4 -20
-5 0 -9 9 -9 20 0 11 2 20 4 20 2 0 6 -9 9 -20z m3263 -40 c1 -16 -3 -27 -7
-24 -14 8 -9 54 5 54 1 0 1 -13 2 -30z m561 -122 c-3 -8 -6 -5 -6 6 -1 11 2
17 5 13 3 -3 4 -12 1 -19z m210 -430 c-3 -8 -6 -5 -6 6 -1 11 2 17 5 13 3 -3
4 -12 1 -19z m368 -431 c11 -8 14 -16 8 -20 -6 -4 -18 2 -28 13 -21 23 -8 27
20 7z m-2259 -524 c29 -31 38 -73 38 -178 -1 -89 -11 -128 -61 -230 -143 -289
-405 -366 -479 -142 -18 55 -15 154 8 217 46 126 153 240 298 316 111 59 154
63 196 17z m-1771 8 c103 -47 216 -176 265 -303 34 -88 38 -151 14 -218 -41
-111 -144 -125 -253 -34 -41 34 -100 131 -125 204 -13 39 -26 66 -28 59 -4
-13 -6 20 -7 135 -1 69 13 106 57 159 19 21 27 21 77 -2z m-242 -658 c14 -16
37 -53 51 -84 44 -100 58 -195 59 -414 2 -187 0 -204 -21 -257 -29 -71 -70
-108 -121 -108 -41 0 -59 11 -84 51 -52 85 -87 322 -59 398 24 64 28 95 19
133 -12 49 4 143 38 216 45 98 71 113 118 65z m2723 -46 c47 -24 111 -102 149
-182 77 -160 87 -291 36 -468 -37 -127 -52 -160 -95 -205 -86 -92 -165 -80
-242 35 -46 70 -67 124 -90 235 l-18 88 23 21 c48 45 46 107 -6 161 l-27 28
18 74 c23 97 58 166 105 209 35 31 42 34 77 28 22 -4 53 -15 70 -24z m-1626
-197 c122 -20 312 -86 470 -163 36 -18 68 -36 72 -42 5 -7 8 -7 8 0 0 6 3 6 8
-1 4 -5 41 -34 83 -63 116 -79 110 -65 89 -211 -48 -327 -32 -607 51 -910 85
-310 124 -367 302 -450 109 -51 176 -63 317 -57 69 3 132 8 141 12 13 5 15 1
11 -21 -3 -19 -1 -25 7 -20 16 11 13 -9 -4 -24 -18 -15 -19 -37 -2 -43 9 -4 8
-8 -4 -18 -14 -13 -56 -163 -51 -183 2 -4 -2 -14 -8 -20 -5 -7 -7 -16 -3 -19
3 -4 2 -7 -4 -7 -5 0 -15 -18 -22 -41 -7 -22 -23 -61 -37 -86 -13 -25 -24 -51
-24 -58 0 -6 -11 -21 -25 -33 -14 -12 -25 -26 -25 -30 0 -5 -11 -15 -25 -22
-13 -7 -22 -17 -19 -21 3 -5 -9 -6 -26 -3 -20 4 -30 3 -30 -5 0 -8 -11 -10
-34 -6 -20 4 -36 2 -40 -4 -4 -6 -20 -8 -35 -5 -16 3 -32 1 -35 -5 -4 -6 -20
-8 -36 -4 -16 3 -37 2 -47 -2 -10 -3 -61 -9 -113 -11 -52 -2 -142 -9 -200 -14
-58 -6 -132 -9 -165 -6 -33 2 -112 7 -175 10 -63 4 -153 9 -200 12 -47 3 -98
7 -115 8 -16 1 -36 5 -43 10 -7 4 -24 5 -37 2 -13 -3 -27 -2 -30 4 -3 5 -16
10 -28 10 -12 1 -34 1 -49 1 -17 1 -25 5 -21 12 4 7 -5 8 -25 4 -20 -4 -32 -2
-32 4 0 7 -10 9 -27 5 -21 -5 -24 -4 -13 4 15 10 -4 14 -62 13 -10 0 -15 3
-12 6 8 8 -97 42 -109 34 -5 -3 -7 -1 -4 4 8 12 -20 26 -34 17 -5 -3 -9 -1 -9
3 0 5 -33 25 -72 44 -40 19 -75 38 -77 43 -2 4 -7 2 -12 -5 -7 -11 -9 -10 -9
4 0 10 -4 15 -10 12 -5 -3 -10 -2 -10 3 0 11 -71 46 -87 43 -7 -1 -13 4 -13
11 0 13 -79 64 -93 60 -4 -1 -10 4 -13 12 -3 8 -12 12 -20 9 -8 -3 -14 -1 -12
4 3 9 -53 63 -66 63 -12 0 -75 68 -69 74 4 3 1 6 -6 6 -7 0 -9 5 -6 10 3 6 0
10 -8 10 -8 0 -18 12 -22 28 -4 15 -9 34 -11 42 -6 26 -46 164 -52 180 -3 8
-6 31 -6 51 l-1 37 48 -28 c56 -32 77 -30 153 15 119 70 171 321 152 741 -7
165 -48 608 -64 705 -8 47 8 62 140 127 238 119 504 167 726 132z m-1310 -40
c24 -24 25 -32 4 -76 -21 -44 -45 -57 -89 -48 -43 8 -54 38 -31 82 31 60 81
77 116 42z m2659 -94 c12 -13 24 -39 27 -58 5 -29 2 -38 -17 -52 -53 -36 -129
-7 -129 50 0 30 50 84 77 84 11 0 29 -11 42 -24z m-2749 -781 c6 -38 11 -80
12 -92 0 -13 3 -21 7 -18 12 7 33 -63 27 -88 -3 -12 -3 -16 0 -9 3 6 10 12 14
12 14 0 70 -87 62 -95 -4 -5 -1 -5 6 -1 6 4 25 -2 40 -13 45 -32 93 -36 146
-12 46 20 46 20 46 0 0 -11 -4 -18 -9 -14 -14 8 -21 -25 -21 -96 3 -242 0
-252 -61 -226 -43 18 -111 76 -103 88 3 5 2 8 -3 7 -24 -8 -111 112 -97 134 4
6 3 8 -3 5 -16 -10 -93 233 -93 291 0 62 13 220 16 207 2 -6 8 -41 14 -80z
m3438 -345 l63 -130 -22 -42 c-38 -75 -98 -147 -177 -210 -88 -70 -158 -105
-287 -144 -81 -25 -106 -28 -245 -28 -138 -1 -161 2 -211 22 -99 39 -96 32
-65 158 14 60 29 131 32 157 4 26 9 47 11 47 2 0 19 -11 37 -25 18 -14 57 -33
87 -43 159 -55 304 -28 478 88 129 87 220 195 221 263 0 37 17 12 78 -113z
m-3091 -62 c-2 -13 -4 -3 -4 22 0 25 2 35 4 23 2 -13 2 -33 0 -45z m3533 -918
c-8 -5 -19 -10 -25 -10 -5 0 -3 5 5 10 8 5 20 10 25 10 6 0 3 -5 -5 -10z
m-116 -55 c-18 -15 -18 -16 8 -13 15 2 35 -5 46 -16 13 -11 36 -18 58 -18 28
0 44 -7 63 -27 14 -15 35 -31 46 -36 17 -8 16 -9 -12 -13 l-33 -3 0 -68 0 -69
-74 1 c-50 0 -82 -5 -98 -15 -13 -8 -40 -18 -60 -22 -21 -4 -41 -13 -45 -21
-10 -18 -97 -48 -101 -35 -2 6 -37 10 -78 10 -61 0 -79 4 -96 20 -17 16 -36
20 -85 20 l-63 0 0 30 c0 20 5 30 15 30 9 0 20 12 25 26 9 22 15 25 38 20 l27
-6 -25 16 c-14 9 -17 13 -7 10 10 -3 35 -7 55 -7 l37 -1 -30 -8 c-28 -7 -28
-8 -5 -8 38 -2 64 22 56 52 -9 35 -5 37 276 135 25 9 50 19 54 24 4 4 12 7 18
7 5 0 1 -7 -10 -15z m124 -11 c21 -6 21 -7 5 -19 -18 -13 -43 -4 -43 16 0 10
7 11 38 3z m-486 -156 c-6 -6 -15 -8 -19 -3 -5 4 -2 10 5 12 6 3 9 10 6 16 -5
8 -2 8 7 0 10 -10 10 -16 1 -25z m-1190 -208 c17 -10 35 -17 39 -15 4 3 10 -7
14 -22 3 -16 11 -30 16 -34 5 -3 12 -30 14 -60 4 -38 3 -48 -4 -34 -8 18 -10
17 -10 -10 -1 -37 -15 -60 -30 -51 -6 4 -11 3 -11 -3 0 -6 -11 -13 -25 -17
-14 -3 -22 -10 -20 -15 3 -5 -7 -12 -22 -16 l-28 -7 30 -7 c28 -6 29 -7 8 -14
-13 -4 -23 -11 -23 -16 0 -5 -9 -9 -20 -9 -11 0 -20 -6 -20 -14 0 -8 -9 -18
-20 -21 -11 -3 -20 -11 -20 -17 0 -5 -8 -7 -17 -4 -10 4 -14 4 -11 0 10 -10
-20 -36 -32 -29 -12 7 -50 -31 -50 -49 0 -6 -4 -5 -9 2 -5 9 -24 12 -57 10
-47 -3 -48 -4 -22 -15 38 -17 46 -35 11 -27 -27 6 -27 5 15 -36 46 -47 50 -61
27 -80 -22 -18 -130 -13 -179 9 -45 20 -111 87 -127 129 -20 51 -59 197 -59
223 0 14 6 34 14 45 14 19 15 19 35 -2 11 -12 17 -24 14 -28 -3 -3 2 -8 11
-12 9 -3 16 -12 16 -18 0 -7 16 -30 35 -52 l34 -39 -21 43 c-19 40 -19 47 0
82 26 45 32 62 32 89 0 34 29 91 48 91 6 0 12 6 12 13 0 9 3 8 9 -2 6 -9 18
-11 42 -5 33 7 33 8 9 15 -16 5 -2 7 43 6 37 -1 67 1 67 5 0 4 10 9 23 11 12
3 -9 2 -47 -1 -53 -4 -68 -2 -64 8 2 8 29 14 77 16 41 2 77 6 80 10 12 13 141
-6 173 -26z"/>
<path d="M1446 6117 c2 -7 14 -19 27 -26 21 -13 21 -12 -2 13 -27 29 -33 32
-25 13z"/>
<path d="M1539 6032 c7 -5 10 -15 7 -21 -4 -6 -2 -11 4 -11 17 0 8 33 -10 37
-12 4 -13 3 -1 -5z"/>
<path d="M1595 5976 c17 -13 32 -22 34 -20 6 6 -40 44 -53 44 -6 0 3 -11 19
-24z"/>
<path d="M1515 5970 c7 -12 45 -14 45 -2 0 4 -11 9 -26 10 -14 1 -23 -2 -19
-8z"/>
<path d="M1680 5896 c0 -3 9 -15 20 -26 12 -12 18 -25 15 -30 -8 -13 21 -24
42 -16 14 6 13 9 -8 23 -13 9 -26 19 -29 22 -13 14 -40 33 -40 27z"/>
<path d="M1436 5765 c-3 -9 -6 -24 -5 -33 0 -9 5 -4 10 12 9 32 6 48 -5 21z"/>
<path d="M1227 5533 c-23 -4 -26 -7 -16 -19 6 -8 18 -14 26 -14 14 0 43 23 43
34 0 6 -5 6 -53 -1z"/>
<path d="M2085 1950 c-170 -26 -160 -23 -163 -50 -2 -15 8 -41 22 -62 13 -20
27 -45 31 -57 3 -12 11 -21 16 -21 5 0 9 -7 9 -15 0 -8 4 -15 9 -15 5 0 13 -9
16 -21 4 -11 9 -18 12 -15 3 3 14 -5 24 -18 35 -45 99 -40 195 15 41 24 110
79 98 79 -4 0 4 10 18 23 14 12 34 38 43 57 10 18 24 40 31 48 23 22 16 39
-18 46 -64 11 -284 15 -343 6z m265 -128 c0 -13 -12 -22 -22 -16 -10 6 -1 24
13 24 5 0 9 -4 9 -8z"/>
<path d="M2370 1350 c-74 -7 -103 -17 -97 -34 2 -7 55 -13 148 -17 79 -4 163
-10 187 -14 51 -8 162 3 162 17 0 5 -4 7 -8 4 -5 -3 -27 4 -49 15 -73 36 -185
45 -343 29z"/>
<path d="M5095 1010 c-3 -5 1 -10 9 -10 9 0 16 5 16 10 0 6 -4 10 -9 10 -6 0
-13 -4 -16 -10z"/>
<path d="M5098 883 c7 -3 16 -2 19 1 4 3 -2 6 -13 5 -11 0 -14 -3 -6 -6z"/>
<path d="M4563 863 c27 -7 20 -22 -15 -32 l-33 -9 38 -1 c26 -1 40 4 44 15 6
17 -13 34 -37 33 -11 -1 -10 -3 3 -6z"/>
<path d="M4913 853 c-25 -9 -12 -23 20 -22 17 0 25 3 17 6 -8 3 -17 9 -20 13
-3 4 -11 5 -17 3z"/>
<path d="M2951 434 c0 -11 3 -14 6 -6 3 7 2 16 -1 19 -3 4 -6 -2 -5 -13z"/>
<path d="M5433 6373 c-15 -5 -17 -23 -4 -23 5 0 11 7 15 15 3 8 4 15 3 14 -1
0 -8 -3 -14 -6z"/>
<path d="M5842 6360 c0 -14 2 -19 5 -12 2 6 2 18 0 25 -3 6 -5 1 -5 -13z"/>
<path d="M5385 6340 c3 -5 8 -10 11 -10 2 0 4 5 4 10 0 6 -5 10 -11 10 -5 0
-7 -4 -4 -10z"/>
<path d="M771 5984 c0 -11 3 -14 6 -6 3 7 2 16 -1 19 -3 4 -6 -2 -5 -13z"/>
<path d="M5200 5581 c0 -25 6 -27 13 -6 4 8 2 17 -3 20 -6 4 -10 -3 -10 -14z"/>
<path d="M5255 5460 c-3 -5 1 -10 10 -10 9 0 13 5 10 10 -3 6 -8 10 -10 10 -2
0 -7 -4 -10 -10z"/>
<path d="M5100 4809 c0 -5 5 -7 10 -4 6 3 10 8 10 11 0 2 -4 4 -10 4 -5 0 -10
-5 -10 -11z"/>
<path d="M6331 654 c0 -11 3 -14 6 -6 3 7 2 16 -1 19 -3 4 -6 -2 -5 -13z"/>
<path d="M5666 515 c4 -8 8 -15 10 -15 2 0 4 7 4 15 0 8 -4 15 -10 15 -5 0 -7
-7 -4 -15z"/>
<path d="M5706 465 c4 -8 8 -15 10 -15 2 0 4 7 4 15 0 8 -4 15 -10 15 -5 0 -7
-7 -4 -15z"/>
<path d="M5730 429 c0 -5 5 -7 10 -4 6 3 10 8 10 11 0 2 -4 4 -10 4 -5 0 -10
-5 -10 -11z"/>
<path d="M5750 410 c0 -5 7 -10 15 -10 8 0 15 5 15 10 0 6 -7 10 -15 10 -8 0
-15 -4 -15 -10z"/>
<path d="M5787 393 c-18 -5 -18 -5 0 -18 17 -13 32 -5 33 18 0 7 -4 8 -33 0z"/>
<path d="M5825 351 c-3 -6 4 -15 15 -21 23 -12 26 -5 6 16 -9 8 -17 10 -21 5z"/>
</g>
</svg>
